<svg xmlns="http://www.w3.org/2000/svg" version="1.1" xmlns:xlink="http://www.w3.org/1999/xlink" xmlns:svgjs="http://svgjs.dev/svgjs" width="128" height="128" viewBox="0 0 128 128"><g transform="matrix(0.3946360153256705,0,0,0.3946360153256705,38.32356496695189,12.221578124999994)"><svg viewBox="0 0 47 96" data-background-color="#000000" preserveAspectRatio="xMidYMid meet" height="261" width="128" xmlns="http://www.w3.org/2000/svg" xmlns:xlink="http://www.w3.org/1999/xlink"><g id="tight-bounds" transform="matrix(1,0,0,1,0.39053614611658816,0.25950000000000273)"><svg viewBox="0 0 46.21892770776681 95.481" height="95.481" width="46.21892770776681"><g><svg viewBox="0 0 46.21892770776681 95.481" height="95.481" width="46.21892770776681"><g><svg viewBox="0 0 46.21892770776681 95.481" height="95.481" width="46.21892770776681"><g id="textblocktransform"><svg viewBox="0 0 46.21892770776681 95.481" height="95.481" width="46.21892770776681" id="textblock"><g><svg viewBox="0 0 46.21892770776681 95.481" height="95.481" width="46.21892770776681"><g><svg viewBox="0 0 46.21892770776681 95.481" height="95.481" width="46.21892770776681"><g><svg xmlns="http://www.w3.org/2000/svg" xmlns:xlink="http://www.w3.org/1999/xlink" version="1.1" x="0" y="0" viewBox="24.42565045564846 2.4983659247608196 41.14684331219514 85.00287525345385" enable-background="new 0 0 90 90" xml:space="preserve" height="95.481" width="46.21892770776681" class="icon-icon-0" data-fill-palette-color="accent" id="icon-0"><path d="M56.554 35.695C56.893 35.695 57.261 35.726 57.876 35.572 58.49 35.418 62.732 34.496 65.222 32.037 65.516 31.746 65.836 30.931 65.222 29.824 64.607 28.718 62.701 24.753 60.212 21.218 59.932 20.821 59.751 20.572 59.658 20.265 59.566 19.957 58.429 17.529 56.554 17.714 56.554 17.714 56.355 17.683 56.247 17.468S55.893 17.069 55.709 17.176 55.171 17.652 54.925 17.429C54.68 17.206 52.651 16.33 52.374 15.24 52.301 14.95 52.282 14.471 52.481 14.456 52.681 14.44 53.096 14.21 53.142 13.903S53.126 13.227 52.788 13.119C52.57 13.05 52.527 12.95 52.696 12.873S53.141 12.289 52.895 11.997 52.327 11.643 52.496 11.444 53.096 10.967 53.372 11.045 54.135 10.784 54.437 10.461 54.77 9.739 54.923 9.4C55.077 9.062 55.431 8.601 55.338 7.956 55.246 7.31 55.108 7.541 55.139 7.095 55.169 6.649 55.123 6.618 54.801 6.434 54.478 6.249 54.293 6.311 54.37 5.896S54.354 4.805 53.909 4.498C53.463 4.191 53.355 3.868 52.894 3.868S52.095 4.021 51.833 3.607 50.45 2.546 49.928 2.531 48.499 2.669 48.115 2.531C47.731 2.392 46.01 2.638 44.519 4.436 44.277 4.728 43.643 6.741 44.396 8.539 44.558 8.926 45.426 9.953 45.395 10.352 45.364 10.752 45.38 11.981 46.317 13.257 46.605 13.649 46.824 13.749 46.901 14.102S47.054 14.44 47.209 14.624C47.362 14.808 47.102 15.484 46.64 15.607S44.643 15.976 44.32 15.899 43.582 15.837 43.444 15.899 42 16.099 41.615 16.499C41.231 16.898 40.247 17.913 39.986 18.174 39.724 18.435 36.19 22.123 32.287 26.98 32.029 27.301 31.949 28.24 32.471 28.809 32.682 29.038 32.825 29.301 32.978 29.562S34.714 31.975 39.986 35.832C40.208 35.995 41.092 36.278 41.815 36.109 42.059 36.052 42.353 35.798 42.261 36.161S41.262 39.782 41.892 45.053C41.938 45.437 42.706 50.156 42.937 51.078S43.459 53.951 43.229 57.578C43.167 58.562 42.83 65.769 42.891 66.584S42.553 68.396 42.307 69.104 40.77 74.115 37.835 78.033C37.619 78.321 37.297 78.786 36.314 78.863 35.33 78.94 32.764 79.654 25.218 79.647 24.566 79.646 24.265 80.415 24.511 81.03S24.665 81.814 24.634 82.383 24.741 84.028 25.31 84.242 26.109 84.472 26.248 84.872 27.186 85.748 27.8 85.794 28.645 86.07 28.952 86.394C29.259 86.716 32.072 86.378 32.886 86.533 33.7 86.686 33.685 87.116 34.085 86.809 34.484 86.501 34.731 86.025 35.191 86.317S36.959 86.394 37.496 86.087 38.695 85.672 39.263 85.719C39.832 85.765 40.708 85.058 41.184 84.827S41.906 84.166 42.121 84.75 42.613 85.688 43.612 85.672 44.857 85.473 45.257 86.057 45.994 87.486 47.346 87.501C48.699 87.517 49.775 86.732 50.312 86.609S52.756 86.809 53.124 86.486C53.493 86.164 54.031 84.781 56.551 84.335 57.218 84.218 59.333 84.551 61.131 83.598S63.175 82.277 62.56 82.046C61.946 81.816 61.469 81.677 61.147 80.171 60.98 79.393 59.979 77.682 59.656 72.256 59.605 71.398 59.318 64.558 58.458 57.796 58.364 57.062 57.658 52.94 57.72 51.249S57.72 46.652 57.874 45C58.027 43.349 57.598 39.138 56.645 37.079 56.462 36.679 56.216 35.695 56.554 35.695M43.277 32.269C43.047 32.346 42.939 32.576 42.755 32.714 42.57 32.853 41.787 34.005 41.049 33.575 40.312 33.145 37.976 31.085 37.607 30.455S36.562 28.719 36.255 28.365 35.763 27.719 36.009 27.566 38.744 25.076 40.42 23.032C40.579 22.839 41.158 22.233 41.465 22.11S42.095 21.925 42.126 22.433C42.157 22.94 43.402 30.716 43.509 31.73 43.514 31.793 43.507 32.191 43.277 32.269M55.417 32.284C55.248 32.115 55.155 32.13 55.002 32.084S54.91 31.469 54.91 31.469C54.694 29.195 55.476 27.662 55.739 27.289 56.585 26.091 56.769 24.016 56.938 23.739S57.137 23.585 57.399 23.846C57.66 24.107 61.471 29.84 61.733 30.147S61.821 30.497 61.594 30.731C60.273 32.099 58.182 32.975 57.198 33.128S55.586 32.453 55.417 32.284" fill="#ff00b7" data-fill-palette-color="accent"></path></svg></g></svg></g></svg></g></svg></g></svg></g></svg></g><defs></defs></svg><rect width="46.21892770776681" height="95.481" fill="none" stroke="none" visibility="hidden"></rect></g></svg></g></svg>